<?xml version="1.0" encoding="UTF-8" standalone="no"?>
<!-- Created with Inkscape (http://www.inkscape.org/) -->

<svg
   width="275"
   height="270"
   viewBox="0 0 72.760415 71.437499"
   version="1.1"
   id="svg1"
   inkscape:version="1.3 (0e150ed, 2023-07-21)"
   sodipodi:docname="fruit.svg"
   xmlns:inkscape="http://www.inkscape.org/namespaces/inkscape"
   xmlns:sodipodi="http://sodipodi.sourceforge.net/DTD/sodipodi-0.dtd"
   xmlns="http://www.w3.org/2000/svg"
   xmlns:svg="http://www.w3.org/2000/svg">
  <sodipodi:namedview
     id="namedview1"
     pagecolor="#ffffff"
     bordercolor="#666666"
     borderopacity="1.0"
     inkscape:showpageshadow="2"
     inkscape:pageopacity="0.0"
     inkscape:pagecheckerboard="0"
     inkscape:deskcolor="#d1d1d1"
     inkscape:document-units="px"
     inkscape:zoom="0.59087263"
     inkscape:cx="346.09828"
     inkscape:cy="188.70395"
     inkscape:window-width="1366"
     inkscape:window-height="699"
     inkscape:window-x="0"
     inkscape:window-y="0"
     inkscape:window-maximized="1"
     inkscape:current-layer="layer1" />
  <defs
     id="defs1" />
  <g
     inkscape:label="Layer 1"
     inkscape:groupmode="layer"
     id="layer1">
    <path
       sodipodi:type="star"
       style="fill:#cbcb00;fill-opacity:1;stroke:none;stroke-width:4.99999;stroke-linecap:round;stroke-linejoin:round;stroke-dasharray:none;stroke-opacity:1;paint-order:stroke markers fill"
       id="path1"
       inkscape:flatsided="false"
       sodipodi:sides="5"
       sodipodi:cx="20.005632"
       sodipodi:cy="11.112248"
       sodipodi:r1="27.662798"
       sodipodi:r2="11.882074"
       sodipodi:arg1="0.90860564"
       sodipodi:arg2="1.5369242"
       inkscape:rounded="0.25"
       inkscape:randomized="0"
       d="M 37.013993,32.928436 C 33.198109,35.90338 25.24377,22.823647 20.408027,22.987507 15.572284,23.151367 8.5215899,36.739547 4.5130773,34.029734 0.50456463,31.31992 10.486104,19.713034 8.8359368,15.164605 7.1857702,10.616175 -7.9161411,8.1095457 -6.577654,3.4598453 -5.2391669,-1.1898552 8.8841026,4.7164275 12.699987,1.7414837 c 3.815884,-2.9749438 1.533083,-18.1123057 6.368826,-18.2761657 4.835743,-0.16386 3.582865,15.0933097 7.591378,17.8031229 4.008512,2.7098132 17.699575,-4.1389616 19.349742,0.409468 1.650166,4.5484297 -13.247425,8.0715961 -14.585912,12.7212971 -1.338487,4.6497 9.405856,15.554287 5.589972,18.52923 z"
       inkscape:transform-center-x="1.9595978"
       inkscape:transform-center-y="0.8048581"
       transform="matrix(1.1083284,0,0,1.1083284,14.50411,25.826346)" />
  </g>
</svg>
